<svg width="42" height="42" viewBox="0 0 42 42" fill="none" xmlns="http://www.w3.org/2000/svg">
  <g fill="white" data-sign="1">
    <path data-element="1"
          d="M38.852 27.7106C38.5733 28.4152 38.252 29.0966 37.8977 29.7593L37.9119 29.7546L40 30.8513C37.756 35.0234 34.1609 38.3228 29.7862 40.2221C25.4116 42.1215 20.5173 42.5135 15.8923 41.3282L16.4875 39.0601C15.845 38.8921 15.2073 38.7054 14.5837 38.4721C11.8625 37.4641 9.42483 35.8494 7.44538 33.768C7.19972 33.5113 6.96351 33.2407 6.73202 32.97L6.66115 32.886C6.48636 32.676 6.31156 32.4566 6.14149 32.2373L4.2518 33.6467C1.71489 30.3286 0.236211 26.3385 0 22.1851L2.35739 22.0544C2.34794 21.9704 2.34794 21.8818 2.34794 21.7978C2.34794 21.7441 2.34558 21.6904 2.34321 21.6368C2.34085 21.5831 2.33849 21.5294 2.33849 21.4758V20.6264C2.34321 20.3837 2.35266 20.1457 2.36684 19.9077C2.37156 19.8657 2.37156 19.8237 2.37156 19.7817C2.39046 19.5017 2.41408 19.2264 2.44715 18.9464C2.45187 18.9044 2.45778 18.8635 2.46368 18.8227C2.46959 18.7819 2.47549 18.741 2.48022 18.699C2.50384 18.503 2.52746 18.3117 2.56053 18.1157C2.5747 18.013 2.5936 17.9104 2.61249 17.8077C2.62212 17.756 2.63136 17.7048 2.64054 17.6538C2.66288 17.5297 2.68492 17.4074 2.7117 17.285C2.72773 17.194 2.74714 17.1064 2.76707 17.0164C2.77065 17.0002 2.77425 16.984 2.77784 16.9677C2.81564 16.795 2.85816 16.6223 2.90067 16.4497C2.91485 16.3843 2.92902 16.3236 2.94319 16.263L0.656667 15.6703C1.2472 13.4489 2.20149 11.3349 3.48648 9.41684L5.4612 10.7049L5.56041 10.5509C5.56277 10.5462 5.56632 10.5415 5.56986 10.5369C5.5734 10.5322 5.57695 10.5275 5.57931 10.5229C5.73048 10.2989 5.88638 10.0842 6.04701 9.86952C6.06826 9.84152 6.0907 9.81352 6.11314 9.78552C6.13559 9.75752 6.15803 9.72952 6.17928 9.70151C6.30684 9.53351 6.43912 9.37017 6.57139 9.20684C6.63281 9.13217 6.69895 9.05283 6.76509 8.97817C6.80812 8.92912 6.85056 8.88008 6.89284 8.83123C6.97124 8.74065 7.04905 8.65075 7.12885 8.56282C7.16428 8.52316 7.2009 8.48466 7.23751 8.44615C7.27412 8.40765 7.31074 8.36915 7.34617 8.32949C7.46894 8.19888 7.59643 8.06827 7.72392 7.93766C7.76644 7.891 7.80915 7.84414 7.85638 7.80214C9.23113 6.44878 10.8043 5.30542 12.5334 4.4234L11.8814 3.17738C13.1286 2.5427 14.4325 2.04336 15.7695 1.67468L15.5143 0.76933C20.9472 -0.724034 26.758 -0.02402 31.6759 2.70137L31.2082 3.51805C33.9577 5.04875 36.3293 7.20013 38.1103 9.83218L36.8348 10.6769L36.4143 10.9569C34.1845 7.66681 30.9248 5.18875 27.1312 3.91006C23.3377 2.6267 19.2229 2.61737 15.4246 3.87273C12.7271 4.76408 10.2941 6.26211 8.30519 8.22682L9.38231 9.29084C6.30684 12.3289 4.54943 16.431 4.47856 20.7244C4.4077 25.0225 6.03283 29.1759 9.00909 32.3073L8.18235 33.0727C10.0531 35.0467 12.3633 36.5727 14.9333 37.5248C15.6183 37.7768 16.3175 37.9868 17.0214 38.1548C17.0639 38.1641 17.1064 38.1746 17.1489 38.1851C17.1914 38.1956 17.234 38.2061 17.2765 38.2154C17.6025 38.2854 17.9284 38.3508 18.2544 38.4068C18.2914 38.4159 18.3305 38.4211 18.3689 38.4262C18.3893 38.4289 18.4095 38.4315 18.4292 38.4348C18.7174 38.4768 19.0055 38.5141 19.2985 38.5468C19.3787 38.5514 19.459 38.5608 19.5392 38.5701C19.8652 38.6027 20.1961 38.6214 20.5268 38.6354C20.6023 38.6401 20.6779 38.6401 20.7535 38.6401C21.0417 38.6448 21.3346 38.6448 21.6228 38.6401H21.8259C22.1566 38.6308 22.4873 38.6074 22.818 38.5794C22.903 38.5748 22.9881 38.5654 23.0731 38.5561C23.3849 38.5234 23.6967 38.4814 24.0085 38.4348L24.1077 38.4208C24.4384 38.3694 24.7691 38.3041 25.0998 38.2294L25.3549 38.1734C25.6809 38.0941 26.0068 38.0101 26.3281 37.9168C26.3753 37.9028 26.4179 37.8888 26.4604 37.8748C26.7486 37.7861 27.0367 37.6928 27.3202 37.5901C27.4005 37.5574 27.4808 37.5294 27.5611 37.5014C27.8729 37.3847 28.18 37.2634 28.4823 37.1281L28.6666 37.0441C28.9264 36.9274 29.1863 36.8014 29.4414 36.6707C29.4768 36.6521 29.5122 36.6346 29.5477 36.6171C29.5831 36.5996 29.6185 36.5821 29.6539 36.5634C29.9421 36.4094 30.2303 36.2461 30.5138 36.0781L30.7122 35.952C30.9578 35.798 31.2035 35.6394 31.4444 35.4714C31.4964 35.4387 31.5484 35.406 31.6003 35.3687C31.8743 35.1774 32.1389 34.9767 32.3987 34.7714C32.4318 34.7434 32.4649 34.7165 32.4979 34.6897C32.531 34.6629 32.5641 34.636 32.5971 34.608C32.8475 34.4027 33.0979 34.1927 33.3341 33.978C33.353 33.964 33.3719 33.95 33.3861 33.936C33.6317 33.712 33.8727 33.474 34.1042 33.236C34.1349 33.2057 34.1644 33.1742 34.1939 33.1427C34.2235 33.1112 34.253 33.0797 34.2837 33.0493C34.5105 32.8113 34.7325 32.564 34.9451 32.312C34.9782 32.2746 35.0112 32.2326 35.0443 32.1906C35.2333 31.962 35.4175 31.7286 35.5923 31.4953C35.6159 31.4626 35.6407 31.43 35.6655 31.3973C35.6903 31.3646 35.7151 31.332 35.7388 31.2993C35.9324 31.0333 36.1167 30.7626 36.2962 30.4873C36.3271 30.4432 36.3555 30.3967 36.3832 30.3512C36.3936 30.3341 36.404 30.3172 36.4143 30.3006C36.5655 30.0579 36.7119 29.8153 36.8489 29.5679C36.882 29.5026 36.9198 29.4373 36.9575 29.372C37.3119 28.7187 37.6332 28.0419 37.9024 27.3465L38.852 27.7106Z"></path>
    <path data-element="1"
          d="M12.8283 25.3912C11.7977 23.4731 11.473 21.2564 11.9106 19.1284L11.92 19.133L12.8471 19.3197C13.0071 18.5497 13.2753 17.8077 13.6424 17.1077L13.2235 16.8883C13.9341 15.535 14.9883 14.3916 16.2777 13.5609C16.4283 13.4629 16.5835 13.3743 16.7388 13.2856L16.273 12.4736C18.4141 11.2695 20.9365 10.9055 23.3365 11.4469C25.7412 11.9929 27.8494 13.4023 29.2565 15.409L28.4847 15.941V15.9456L27.0071 16.963C26.3059 15.9643 25.36 15.1616 24.2541 14.6296C23.153 14.0976 21.9247 13.8596 20.7012 13.9343C19.4777 14.0089 18.2918 14.3963 17.2612 15.059C16.5083 15.5443 15.8588 16.165 15.3412 16.8837C15.3035 16.9303 15.2706 16.9817 15.2377 17.033C15.1012 17.229 14.9788 17.4297 14.8659 17.635C14.2541 18.7597 13.9483 20.0337 14.0094 21.3264C14.0565 22.3484 14.3247 23.3378 14.7906 24.2338C14.88 24.4065 14.9788 24.5792 15.0824 24.7425C15.0831 24.7439 15.0839 24.7452 15.0848 24.7465C15.0862 24.7484 15.0878 24.7502 15.0893 24.7519C15.093 24.7562 15.0965 24.7602 15.0965 24.7658C15.2 24.9292 15.3083 25.0878 15.4259 25.2418C15.4353 25.2465 15.44 25.2558 15.4447 25.2652C15.5624 25.4192 15.6847 25.5685 15.8165 25.7132C15.8188 25.7178 15.8224 25.7213 15.8259 25.7248C15.8272 25.7261 15.8285 25.7274 15.8297 25.7287C15.8318 25.731 15.8338 25.7335 15.8353 25.7365C15.9671 25.8812 16.1082 26.0165 16.2494 26.1518L16.2683 26.1705C16.4094 26.3059 16.56 26.4272 16.7106 26.5485C16.7153 26.5509 16.7188 26.5544 16.7224 26.5579C16.7259 26.5614 16.7294 26.5649 16.7341 26.5672C16.8847 26.6839 17.04 26.7959 17.2 26.8985C17.2062 26.9026 17.2115 26.9067 17.2163 26.9104C17.218 26.9118 17.2197 26.9131 17.2213 26.9143C17.2222 26.915 17.2232 26.9157 17.2241 26.9163C17.2271 26.9185 17.23 26.9204 17.233 26.9219C17.393 27.0245 17.553 27.1179 17.7177 27.2065C17.7318 27.2112 17.7459 27.2205 17.76 27.2299C17.92 27.3185 18.0847 27.3932 18.2494 27.4679C18.2537 27.47 18.2581 27.4721 18.2627 27.4742C18.2659 27.4756 18.2693 27.4771 18.2726 27.4786C18.2751 27.4797 18.2775 27.4808 18.28 27.4819C18.2823 27.4829 18.2845 27.4839 18.2868 27.4848C18.2907 27.4866 18.2946 27.4883 18.2984 27.4901C18.3026 27.492 18.3067 27.4939 18.3106 27.4959C18.8659 27.7339 19.4494 27.9019 20.0565 27.9952C20.8706 28.1166 21.6941 28.1026 22.4894 27.9486H22.4988C23.2941 27.7945 24.0659 27.5099 24.7718 27.0945C24.9694 26.9779 25.1671 26.8519 25.3553 26.7165C26.4047 25.9512 27.2235 24.9198 27.7271 23.7298L29.8165 24.5978C29.153 26.1658 28.0706 27.5285 26.6871 28.5319C25.2988 29.5353 23.6659 30.1466 21.9577 30.2959L21.873 29.3626C21.2 29.4186 20.5224 29.4046 19.8447 29.3019C19.1812 29.1992 18.5365 29.0172 17.92 28.7652L17.5624 29.6333C15.5341 28.8119 13.8588 27.3092 12.8283 25.3912Z"></path>
    <g data-element="1">
      <path
        d="M28.1082 7.76948L28.9835 6.11278L28.9882 6.13144C31.5058 7.43347 33.6517 9.34684 35.2282 11.6896L31.9905 13.8316C31.6517 13.3229 31.2753 12.8469 30.8706 12.3989C30.847 12.3732 30.8223 12.3464 30.7976 12.3196L30.7759 12.296C30.7585 12.2771 30.7413 12.2584 30.7247 12.2402C30.607 12.1142 30.4847 11.9836 30.3623 11.8622L30.3482 11.8482C30.08 11.5822 29.7976 11.3302 29.5105 11.0922C29.487 11.0735 29.4635 11.0537 29.44 11.0339C29.4164 11.014 29.3929 10.9942 29.3694 10.9755C29.2329 10.8635 29.0964 10.7562 28.9553 10.6535C28.9295 10.6349 28.9049 10.6175 28.8802 10.6001L28.8797 10.5997C28.8551 10.5823 28.8304 10.5648 28.8047 10.5462C28.3529 10.2242 27.8823 9.92552 27.3929 9.65952L27.2094 9.56151C27.0541 9.47751 26.8988 9.39818 26.7388 9.32351C26.727 9.31884 26.7141 9.31301 26.7011 9.30717C26.6882 9.30134 26.6753 9.29551 26.6635 9.29084C26.3388 9.1415 26.0094 9.0015 25.6753 8.88017C25.6188 8.85683 25.5576 8.8335 25.5011 8.81483C25.3411 8.75883 25.1717 8.70283 25.007 8.65149C24.9459 8.63285 24.8801 8.61421 24.8143 8.59556C24.4473 8.48823 24.0705 8.39015 23.6894 8.31549C22.5553 8.09148 21.3929 8.01681 20.24 8.09615L20.2541 8.32949L20.3105 9.12284C18.2776 9.26284 16.3105 9.91152 14.6023 11.0129C14.127 11.3162 13.6753 11.6569 13.2517 12.0256L14.0753 12.9636C13.0823 13.8176 12.2588 14.8443 11.6423 15.997L10.3341 15.3063V15.3016L9.98114 15.115C9.84466 15.3576 9.72231 15.605 9.60466 15.8616C8.88466 17.4483 8.50819 19.1704 8.49408 20.9111L6.54584 20.8971C6.55996 18.8857 6.99761 16.9023 7.83055 15.0683C7.97643 14.7463 8.14114 14.4289 8.31055 14.1163L7.89172 13.8923C9.10114 11.6802 10.8564 9.80885 12.9882 8.44616C14.0753 7.75081 15.247 7.2048 16.4658 6.80812L16.1741 5.91677C17.7741 5.39876 19.4494 5.13275 21.1341 5.13275V7.00413C22.0611 7.00413 22.9882 7.0928 23.8964 7.2748L24.08 6.35545C25.4964 6.63545 26.8517 7.11613 28.1082 7.76948Z"></path>
      <path
        d="M27.6518 33.9407C30.8471 32.3586 33.3412 29.6706 34.673 26.3852L31.3318 25.0551C30.3295 27.5285 28.4518 29.5539 26.0424 30.7439C23.6377 31.934 20.8753 32.2093 18.2777 31.5186L17.6659 33.7773C16.7059 33.5207 15.7695 33.1566 14.8848 32.6946C14.6918 32.592 14.5036 32.4846 14.3153 32.3726L15.4353 30.5013C15.4353 30.5013 15.4071 30.4826 15.393 30.4779L15.5295 30.2539C13.7083 29.1712 12.2495 27.5845 11.3271 25.6898C10.4048 23.7951 10.0612 21.6717 10.3389 19.5857L9.46358 19.469C9.30828 20.6451 9.33652 21.8258 9.53887 22.9831L7.21416 23.3798C7.37416 24.2898 7.62358 25.1812 7.95769 26.0352L6.63534 26.5392C8.02358 30.1139 10.7059 33.0446 14.16 34.762L14.7953 33.5067C15.6471 33.9313 16.5412 34.272 17.4589 34.5147L17.3365 34.9674C20.7859 35.8867 24.4518 35.5227 27.6471 33.9407H27.6518Z"></path>
    </g>
  </g>
  <path
    d="M25 21C25 23.2091 23.2091 25 21 25C18.7909 25 17 23.2091 17 21C17 18.7909 18.7909 17 21 17C23.2091 17 25 18.7909 25 21ZM19.3116 21C19.3116 21.9325 20.0675 22.6884 21 22.6884C21.9325 22.6884 22.6884 21.9325 22.6884 21C22.6884 20.0675 21.9325 19.3116 21 19.3116C20.0675 19.3116 19.3116 20.0675 19.3116 21Z"
    fill="#55F89F"></path>
</svg>
